# xmcd
#
# Track frame offsets:
#   150
#   14327
#   30754
#   41856
#   56033
#   66385
#   78762
#   92864
#   108766
#   120468
#   133295
#   144022
#   155499
#   169976
#   183103
#   197580
#   211082
#   222859
#   239811
#   258188
#
# Disc length: 3593 seconds
#
# Revision: 0
# Processed by: cddbd v1.4PL0 Copyright (c) Steve Scherf et al.
# Submitted via: uFREEDB 1.6.0
#
DISCID=120e0714
DTITLE=Greatest hits - Bread
DYEAR=1999
DGENRE=Blues
TTITLE0=Anyway you want me
TTITLE1=Audrey
TTITLE2=Baby, I´m a want you
TTITLE3=dairy
TTITLE4=Dismal day
TTITLE5=Down on my knees
TTITLE6=Everything i own
TTITLE7=fancy dancer
TTITLE8=If
TTITLE9=It don´t matter to me
TTITLE10=let your love go
TTITLE11=London Bridge
TTITLE12=Look what you´ve done
TTITLE13=Lost without love
TTITLE14=Make it with you
TTITLE15=She´s the only one
TTITLE16=Sweet surrender
TTITLE17=The guitar man
TTITLE18=The last tie
TTITLE19=Trucking
EXTD=
EXTT0=
EXTT1=
EXTT2=
EXTT3=
EXTT4=
EXTT5=
EXTT6=
EXTT7=
EXTT8=
EXTT9=
EXTT10=
EXTT11=
EXTT12=
EXTT13=
EXTT14=
EXTT15=
EXTT16=
EXTT17=
EXTT18=
EXTT19=
PLAYORDER=
